<svg xmlns="http://www.w3.org/2000/svg" viewBox="0 0 1200 630" fill="none">
  <rect width="1200" height="630" fill="#F5F3EE"/>
  <rect x="52" y="52" width="1096" height="526" rx="28" fill="#FCFBF8" stroke="#DDD6CB"/>

  <text x="96" y="132" fill="#1F2937" font-family="Manrope, Arial, sans-serif" font-size="40" font-weight="700">Legal intake fraud scoring</text>
  <text x="96" y="170" fill="#667085" font-family="Manrope, Arial, sans-serif" font-size="20">Transcript signals, external checks, and disposition logic for intake calls</text>

  <rect x="96" y="224" width="224" height="266" rx="24" fill="#1F2937"/>
  <text x="128" y="266" fill="#F8FAFC" font-family="Manrope, Arial, sans-serif" font-size="22" font-weight="700">Call intake</text>
  <rect x="128" y="312" width="160" height="40" rx="14" fill="#F8FAFC" fill-opacity="0.08" stroke="#9CA3AF" stroke-opacity="0.24"/>
  <text x="150" y="338" fill="#F8FAFC" font-family="Manrope, Arial, sans-serif" font-size="17" font-weight="600">Transcript</text>
  <rect x="128" y="366" width="160" height="40" rx="14" fill="#F8FAFC" fill-opacity="0.08" stroke="#9CA3AF" stroke-opacity="0.24"/>
  <text x="150" y="392" fill="#F8FAFC" font-family="Manrope, Arial, sans-serif" font-size="17" font-weight="600">Speaker split</text>
  <rect x="128" y="420" width="160" height="40" rx="14" fill="#F8FAFC" fill-opacity="0.08" stroke="#9CA3AF" stroke-opacity="0.24"/>
  <text x="150" y="446" fill="#F8FAFC" font-family="Manrope, Arial, sans-serif" font-size="17" font-weight="600">Claim extraction</text>

  <path d="M344 356H412" stroke="#9CA3AF" stroke-width="3" stroke-linecap="round"/>
  <circle cx="378" cy="356" r="10" fill="#1D4ED8"/>

  <rect x="428" y="224" width="348" height="266" rx="24" fill="#FFFFFF" stroke="#D8D0C4"/>
  <text x="460" y="266" fill="#1F2937" font-family="Manrope, Arial, sans-serif" font-size="22" font-weight="700">Verification and scoring</text>

  <rect x="460" y="308" width="284" height="40" rx="16" fill="#EEF2F7" stroke="#D8E0E8"/>
  <text x="504" y="334" fill="#374151" font-family="Manrope, Arial, sans-serif" font-size="17" font-weight="600">NPI and CMS checks</text>

  <rect x="460" y="366" width="132" height="82" rx="18" fill="#F8FAFC" stroke="#D7DFEA"/>
  <text x="486" y="400" fill="#6B7280" font-family="Manrope, Arial, sans-serif" font-size="15">Recall</text>
  <text x="486" y="424" fill="#1F2937" font-family="Manrope, Arial, sans-serif" font-size="18" font-weight="700">R</text>

  <rect x="606" y="366" width="132" height="82" rx="18" fill="#F8FAFC" stroke="#D7DFEA"/>
  <text x="632" y="400" fill="#6B7280" font-family="Manrope, Arial, sans-serif" font-size="15">Integrity</text>
  <text x="632" y="424" fill="#1F2937" font-family="Manrope, Arial, sans-serif" font-size="18" font-weight="700">I</text>

  <path d="M798 356H866" stroke="#9CA3AF" stroke-width="3" stroke-linecap="round"/>
  <circle cx="832" cy="356" r="10" fill="#B45309"/>

  <rect x="882" y="224" width="218" height="266" rx="24" fill="#F8F3E8" stroke="#E0D4C1"/>
  <text x="914" y="266" fill="#1F2937" font-family="Manrope, Arial, sans-serif" font-size="22" font-weight="700">Disposition</text>

  <rect x="914" y="314" width="154" height="40" rx="14" fill="#FFFFFF" stroke="#E5D8C5"/>
  <text x="948" y="340" fill="#9A3412" font-family="Manrope, Arial, sans-serif" font-size="17" font-weight="700">Transfer</text>

  <rect x="914" y="368" width="154" height="40" rx="14" fill="#FFFFFF" stroke="#E5D8C5"/>
  <text x="948" y="394" fill="#9A3412" font-family="Manrope, Arial, sans-serif" font-size="17" font-weight="700">Review</text>

  <rect x="914" y="422" width="154" height="40" rx="14" fill="#FFFFFF" stroke="#E5D8C5"/>
  <text x="948" y="448" fill="#9A3412" font-family="Manrope, Arial, sans-serif" font-size="17" font-weight="700">Quarantine</text>

  <text x="96" y="598" fill="#6B7280" font-family="Manrope, Arial, sans-serif" font-size="18">A scoring system for deciding which intake calls to trust, escalate, or stop cold</text>
</svg>
